<svg xmlns="http://www.w3.org/2000/svg" viewBox="0 0 24 24" width="40" height="40">
  <path fill="#2496ED" d="M13.983 11.078h2.119a.186.186 0 00.186-.185V9.006a.186.186 0 00-.186-.186h-2.119a.185.185 0 00-.185.186v1.887c0 .102.083.185.185.185m-2.954-5.43h2.118a.186.186 0 00.186-.186V3.574a.186.186 0 00-.186-.185h-2.118a.185.185 0 00-.185.185v1.888c0 .102.082.185.185.185m0 2.716h2.118a.187.187 0 00.186-.186V6.29a.186.186 0 00-.186-.185h-2.118a.185.185 0 00-.185.185v1.887c0 .102.082.186.185.186m-2.93 0h2.12a.186.186 0 00.184-.186V6.29a.185.185 0 00-.185-.185H8.1a.185.185 0 00-.185.185v1.887c0 .102.083.186.185.186m-2.964 0h2.119a.186.186 0 00.185-.186V6.29a.185.185 0 00-.185-.185H5.136a.186.186 0 00-.186.185v1.887c0 .102.084.186.186.186m5.893 2.715h2.119a.186.186 0 00.186-.185V9.006a.186.186 0 00-.186-.186h-2.119a.185.185 0 00-.185.186v1.887c0 .102.082.185.185.185m-2.93 0h2.12a.185.185 0 00.184-.185V9.006a.185.185 0 00-.184-.186H8.1a.185.185 0 00-.185.186v1.887c0 .102.083.185.185.185m-2.964 0h2.119a.185.185 0 00.185-.185V9.006a.185.185 0 00-.185-.186H5.136a.186.186 0 00-.186.186v1.887c0 .102.084.185.186.185m-2.928 0h2.119a.185.185 0 00.185-.185V9.006a.185.185 0 00-.185-.186H2.208a.186.186 0 00-.186.186v1.887c0 .102.084.185.186.185m21.758 1.442c-.443-.306-1.57-.464-2.58-.225-.262-.75-1.026-1.258-1.89-1.258-.09 0-.179.008-.266.019-.34-.913-1.203-1.562-2.222-1.562-.486 0-.936.148-1.312.4-.24-.132-.516-.214-.812-.214H.928A.93.93 0 000 12.316v1.176c0 3.298 2.378 6.079 5.569 6.745 2.11.441 4.542.441 6.652 0 3.191-.666 5.569-3.447 5.569-6.745v-.422c.732-.08 1.439.123 1.954.512.656.495 1.054 1.254 1.054 2.128 0 .21-.027.417-.079.615 1.838-.415 3.167-1.925 3.167-3.876 0-.853-.3-1.642-.87-2.261"/>
</svg>
